<?xml version="1.0" encoding="UTF-8" standalone="no"?>
<!-- Generator: Adobe Illustrator 15.0.0, SVG Export Plug-In . SVG Version: 6.00 Build 0)  -->

<svg
   version="1.1"
   id="Capa_1"
   x="0px"
   y="0px"
   width="421.87601"
   height="79.432999"
   viewBox="0 0 421.87599 79.432997"
   enable-background="new 0 0 595.28 841.89"
   xml:space="preserve"
   xmlns="http://www.w3.org/2000/svg"
   xmlns:svg="http://www.w3.org/2000/svg"><defs
   id="defs13" />
<g
   id="g8"
   transform="translate(-87.627,-381)">
	<path
   fill="#a61834"
   d="m 199.405,398.078 c -0.309,-1.078 -0.464,-2.087 -0.464,-3.031 0,-1.21 0.172,-2.421 0.515,-3.632 0.326,-1.12 0.839,-2.139 1.54,-3.057 0.668,-0.884 1.516,-1.587 2.544,-2.103 1.01,-0.477 2.175,-0.737 3.495,-0.779 0.532,0 1.164,0.071 1.891,0.214 0.542,0.125 1.145,0.348 1.803,0.666 0.578,0.292 1.029,0.649 1.353,1.076 0.21,0.276 0.316,0.568 0.316,0.878 0,0.234 -0.098,0.445 -0.291,0.64 -0.174,0.175 -0.397,0.279 -0.663,0.312 -0.318,-0.093 -0.505,-0.164 -0.565,-0.214 -0.165,-0.125 -0.344,-0.26 -0.537,-0.406 -0.191,-0.146 -0.346,-0.258 -0.462,-0.333 -0.335,-0.258 -0.721,-0.462 -1.152,-0.612 -0.402,-0.151 -0.915,-0.24 -1.542,-0.265 -1.327,0 -2.421,0.369 -3.282,1.102 -0.885,0.759 -1.521,1.681 -1.905,2.765 -0.4,1.069 -0.613,2.174 -0.638,3.317 0,1.042 0.162,2.113 0.49,3.205 0.332,1.134 0.896,2.123 1.69,2.966 0.818,0.842 1.912,1.289 3.281,1.339 0.852,0 1.597,-0.12 2.229,-0.364 0.651,-0.26 1.344,-0.61 2.08,-1.051 0.25,-0.133 0.5,-0.202 0.75,-0.202 0.268,0 0.482,0.093 0.64,0.278 0.135,0.183 0.201,0.42 0.201,0.712 0,0.402 -0.108,0.685 -0.324,0.854 -0.688,0.622 -1.52,1.063 -2.496,1.324 -0.967,0.268 -1.94,0.402 -2.918,0.402 -1.428,-0.026 -2.645,-0.312 -3.652,-0.857 -1.005,-0.548 -1.842,-1.285 -2.509,-2.212 -0.672,-0.945 -1.141,-1.92 -1.418,-2.932 z m 16.762,2.494 c -0.476,-1.027 -0.713,-2.184 -0.713,-3.471 0,-1.36 0.252,-2.554 0.763,-3.583 0.52,-1.094 1.236,-1.931 2.155,-2.517 0.944,-0.601 1.979,-0.901 3.107,-0.901 1.235,0.024 2.296,0.351 3.183,0.977 0.908,0.643 1.609,1.5 2.103,2.567 0.478,1.025 0.714,2.181 0.714,3.456 0,1.303 -0.236,2.468 -0.714,3.496 -0.476,1.053 -1.178,1.9 -2.103,2.543 -0.887,0.625 -1.947,0.939 -3.183,0.939 -1.236,0 -2.296,-0.315 -3.182,-0.939 -0.944,-0.66 -1.653,-1.515 -2.13,-2.567 z m 1.543,-3.476 c 0,1.284 0.299,2.439 0.899,3.465 0.587,1.042 1.526,1.564 2.82,1.564 0.834,0 1.536,-0.234 2.103,-0.701 0.545,-0.409 0.961,-1.004 1.253,-1.788 0.268,-0.701 0.415,-1.548 0.439,-2.54 0,-0.91 -0.147,-1.757 -0.439,-2.541 -0.282,-0.758 -0.701,-1.363 -1.253,-1.812 -0.558,-0.459 -1.243,-0.688 -2.053,-0.688 -0.802,0 -1.488,0.211 -2.055,0.638 -0.575,0.449 -1.003,1.055 -1.276,1.812 -0.292,0.785 -0.438,1.648 -0.438,2.591 z m 15.472,5.779 v -17.597 c 0,-0.367 -0.115,-0.647 -0.345,-0.84 -0.23,-0.191 -0.49,-0.289 -0.782,-0.289 -0.312,0 -0.571,0.105 -0.778,0.315 -0.218,0.191 -0.325,0.48 -0.325,0.863 v 17.548 c 0,0.376 0.107,0.67 0.325,0.879 0.226,0.216 0.483,0.325 0.778,0.325 0.299,0 0.562,-0.101 0.787,-0.302 0.225,-0.224 0.34,-0.526 0.34,-0.902 z m 3.569,-3.332 c -0.216,-0.727 -0.336,-1.54 -0.36,-2.442 L 236.44,397 v -0.022 c 0.052,-1.178 0.318,-2.288 0.801,-3.333 0.493,-1.06 1.185,-1.909 2.081,-2.543 0.893,-0.645 1.94,-0.977 3.145,-1.001 1.201,0 2.246,0.315 3.129,0.951 0.932,0.643 1.639,1.491 2.132,2.541 0.5,1.078 0.75,2.173 0.75,3.285 0,0.733 -0.422,1.102 -1.266,1.102 h -8.517 c 0.026,0.923 0.225,1.683 0.601,2.273 0.344,0.624 0.834,1.094 1.477,1.412 0.637,0.307 1.331,0.461 2.084,0.461 1.35,0 2.573,-0.471 3.671,-1.412 0.366,-0.272 0.652,-0.412 0.85,-0.412 0.267,0 0.465,0.097 0.591,0.289 0.13,0.185 0.198,0.406 0.198,0.664 0,0.3 -0.107,0.578 -0.324,0.829 -0.451,0.5 -1.162,0.971 -2.13,1.402 -0.938,0.396 -1.931,0.594 -2.982,0.594 -1.136,0 -2.1,-0.214 -2.895,-0.643 -0.844,-0.416 -1.503,-0.964 -1.98,-1.639 -0.508,-0.72 -0.877,-1.471 -1.105,-2.255 z m 1.943,-3.281 h 7.526 c -0.022,-1.261 -0.354,-2.27 -0.989,-3.031 -0.669,-0.759 -1.552,-1.154 -2.646,-1.176 -1.155,0 -2.074,0.367 -2.749,1.1 -0.703,0.736 -1.083,1.771 -1.142,3.107 z m 21.473,12.363 c -0.87,0.552 -1.954,0.837 -3.256,0.867 -1.473,0 -2.892,-0.404 -4.261,-1.21 -0.685,-0.435 -1.052,-0.904 -1.104,-1.409 0.11,-0.531 0.412,-0.847 0.902,-0.948 0.509,0.075 1.016,0.279 1.516,0.612 0.386,0.274 0.856,0.511 1.418,0.712 0.552,0.191 1.097,0.287 1.639,0.287 1.243,0 2.175,-0.488 2.795,-1.465 0.616,-0.96 0.925,-2.104 0.925,-3.432 0,-0.092 -0.01,-0.18 -0.036,-0.263 v -0.251 h -0.052 c -0.351,0.629 -0.824,1.1 -1.428,1.412 -0.633,0.362 -1.37,0.542 -2.204,0.542 -1.151,-0.026 -2.161,-0.351 -3.031,-0.977 -0.876,-0.6 -1.561,-1.452 -2.054,-2.556 -0.494,-1.085 -0.74,-2.267 -0.74,-3.546 0.025,-1.335 0.279,-2.525 0.766,-3.57 0.483,-1.042 1.194,-1.86 2.129,-2.454 0.893,-0.584 1.944,-0.876 3.155,-0.876 0.847,0.017 1.555,0.184 2.126,0.5 0.57,0.318 0.999,0.785 1.281,1.404 h 0.052 v -0.751 c 0,-0.344 0.114,-0.613 0.338,-0.814 0.208,-0.192 0.468,-0.289 0.776,-0.289 0.334,0 0.606,0.097 0.814,0.289 0.227,0.191 0.341,0.48 0.341,0.865 v 11.674 c 0,1.245 -0.244,2.355 -0.73,3.332 -0.451,0.975 -1.142,1.748 -2.077,2.315 z m 0.802,-11.369 c 0,-0.909 -0.137,-1.736 -0.416,-2.489 -0.282,-0.816 -0.717,-1.467 -1.301,-1.95 -0.585,-0.51 -1.328,-0.763 -2.23,-0.763 -0.801,0.022 -1.47,0.279 -2.002,0.763 -0.536,0.483 -0.929,1.11 -1.182,1.876 -0.256,0.727 -0.386,1.527 -0.386,2.403 0.025,1.008 0.172,1.855 0.438,2.54 0.292,0.775 0.701,1.371 1.228,1.788 0.542,0.441 1.197,0.675 1.957,0.701 1.158,0 2.1,-0.435 2.816,-1.308 0.717,-0.872 1.078,-2.058 1.078,-3.561 z m 7.392,-7.156 c -0.311,0 -0.567,0.104 -0.775,0.312 -0.217,0.192 -0.327,0.473 -0.327,0.841 v 11.674 c 0,0.359 0.11,0.643 0.327,0.851 0.24,0.201 0.5,0.302 0.775,0.302 0.299,0 0.562,-0.101 0.789,-0.302 0.224,-0.198 0.338,-0.484 0.338,-0.851 v -11.624 c 0,-0.376 -0.114,-0.673 -0.338,-0.891 -0.201,-0.208 -0.463,-0.312 -0.789,-0.312 z m 0,-1.592 c 0.357,0 0.656,-0.12 0.896,-0.357 0.236,-0.239 0.356,-0.543 0.356,-0.92 0,-0.377 -0.12,-0.685 -0.351,-0.928 -0.253,-0.24 -0.552,-0.362 -0.902,-0.362 -0.344,0 -0.652,0.128 -0.928,0.388 -0.243,0.25 -0.363,0.55 -0.363,0.902 0,0.35 0.12,0.646 0.363,0.889 0.261,0.258 0.57,0.388 0.929,0.388 z m 13.856,14.631 c -0.886,0.625 -1.947,0.939 -3.181,0.939 -1.236,0 -2.298,-0.315 -3.184,-0.939 -0.944,-0.661 -1.652,-1.516 -2.129,-2.567 -0.474,-1.027 -0.714,-2.184 -0.714,-3.471 0,-1.36 0.256,-2.554 0.766,-3.583 0.516,-1.094 1.233,-1.931 2.155,-2.517 0.94,-0.601 1.977,-0.901 3.105,-0.901 1.233,0.024 2.295,0.351 3.181,0.977 0.909,0.643 1.613,1.5 2.104,2.567 0.477,1.025 0.717,2.181 0.717,3.456 0,1.303 -0.24,2.468 -0.717,3.496 -0.474,1.053 -1.174,1.901 -2.103,2.543 z m 0.127,-3.503 c 0.266,-0.701 0.412,-1.548 0.438,-2.54 0,-0.91 -0.146,-1.757 -0.438,-2.541 -0.286,-0.758 -0.705,-1.363 -1.253,-1.812 -0.562,-0.459 -1.246,-0.688 -2.055,-0.688 -0.802,0 -1.489,0.211 -2.055,0.638 -0.577,0.449 -1.003,1.055 -1.278,1.812 -0.292,0.785 -0.438,1.649 -0.438,2.591 0,1.284 0.302,2.439 0.902,3.465 0.585,1.042 1.522,1.564 2.817,1.564 0.837,0 1.535,-0.234 2.106,-0.701 0.543,-0.409 0.962,-1.005 1.254,-1.788 z m -68.795,31.259 c 0.065,0.258 0.101,0.485 0.101,0.677 0,0.292 -0.101,0.513 -0.295,0.662 -0.198,0.152 -0.449,0.228 -0.76,0.228 -0.24,0 -0.472,-0.068 -0.688,-0.201 -0.234,-0.15 -0.39,-0.363 -0.464,-0.641 l -1.201,-3.307 h -8.468 l -1.204,3.307 c -0.159,0.528 -0.547,0.791 -1.165,0.791 -0.3,0 -0.539,-0.076 -0.714,-0.226 -0.201,-0.175 -0.312,-0.396 -0.338,-0.665 0.026,-0.117 0.056,-0.228 0.088,-0.336 0.007,-0.061 0.032,-0.154 0.074,-0.289 l 5.9,-15.771 c 0.159,-0.459 0.37,-0.792 0.64,-1.001 0.292,-0.243 0.601,-0.362 0.925,-0.362 0.354,0 0.666,0.11 0.939,0.336 0.262,0.2 0.478,0.527 0.652,0.979 z m -3.986,-4.535 -3.531,-9.934 h -0.052 l -3.518,9.934 z m 17.832,-13.629 c 0.224,0.175 0.338,0.467 0.338,0.876 v 17.65 c 0,0.365 -0.114,0.65 -0.338,0.852 -0.224,0.2 -0.493,0.301 -0.809,0.301 -0.275,0 -0.532,-0.102 -0.771,-0.303 -0.225,-0.21 -0.338,-0.479 -0.338,-0.807 v -0.744 h -0.049 c -0.228,0.488 -0.62,0.917 -1.18,1.285 -0.563,0.353 -1.304,0.543 -2.234,0.568 -1.221,0 -2.275,-0.291 -3.16,-0.865 -0.93,-0.592 -1.639,-1.413 -2.132,-2.467 -0.485,-1.045 -0.741,-2.242 -0.765,-3.596 0,-0.986 0.134,-1.893 0.403,-2.717 0.284,-0.853 0.679,-1.614 1.191,-2.281 0.492,-0.61 1.106,-1.115 1.842,-1.516 0.687,-0.36 1.466,-0.539 2.335,-0.539 1.555,0 2.788,0.62 3.7,1.855 h 0.049 v -6.727 c 0,-0.36 0.113,-0.636 0.338,-0.828 0.229,-0.201 0.488,-0.3 0.771,-0.3 0.315,0.003 0.585,0.102 0.809,0.303 z m -1.656,12.697 c 0,-1.012 -0.162,-1.891 -0.49,-2.641 -0.316,-0.777 -0.759,-1.365 -1.327,-1.764 -0.554,-0.425 -1.197,-0.64 -1.935,-0.64 -0.859,0 -1.562,0.247 -2.106,0.739 -0.569,0.491 -0.979,1.127 -1.229,1.902 -0.268,0.677 -0.416,1.458 -0.44,2.353 0,1.385 0.301,2.566 0.904,3.539 0.584,0.976 1.477,1.49 2.673,1.542 0.92,0 1.681,-0.253 2.283,-0.753 0.584,-0.483 1.003,-1.105 1.253,-1.863 0.252,-0.711 0.388,-1.516 0.414,-2.414 z m 22.465,-6.385 c -0.737,-0.383 -1.513,-0.587 -2.33,-0.613 -0.851,0 -1.633,0.172 -2.344,0.513 -0.685,0.336 -1.341,0.932 -1.967,1.792 -0.908,-1.485 -2.132,-2.254 -3.671,-2.304 -1.502,0 -2.675,0.548 -3.521,1.642 h -0.049 v -0.438 c 0,-0.376 -0.104,-0.666 -0.312,-0.867 -0.175,-0.191 -0.432,-0.287 -0.766,-0.287 -0.309,0 -0.584,0.096 -0.826,0.287 -0.216,0.193 -0.326,0.448 -0.326,0.766 v 11.775 c 0,0.324 0.11,0.59 0.326,0.801 0.242,0.2 0.5,0.301 0.777,0.301 0.3,0 0.563,-0.101 0.789,-0.301 0.227,-0.175 0.337,-0.443 0.337,-0.801 v -7.93 c 0,-0.71 0.14,-1.273 0.416,-1.693 0.241,-0.424 0.592,-0.75 1.052,-0.974 0.417,-0.195 0.9,-0.302 1.453,-0.328 0.834,0 1.528,0.263 2.08,0.789 0.548,0.551 0.824,1.376 0.824,2.466 v 7.67 c 0,0.34 0.113,0.6 0.338,0.775 0.233,0.184 0.49,0.275 0.766,0.275 0.299,0 0.574,-0.092 0.824,-0.275 0.218,-0.186 0.328,-0.441 0.328,-0.775 v -7.769 c 0,-1.092 0.282,-1.9 0.851,-2.416 0.594,-0.493 1.311,-0.74 2.154,-0.74 0.526,0 1.01,0.12 1.454,0.357 0.441,0.239 0.775,0.596 1.003,1.071 0.256,0.487 0.387,1.061 0.387,1.728 v 7.769 c 0,0.334 0.113,0.6 0.341,0.801 0.224,0.2 0.477,0.301 0.763,0.301 0.317,0 0.59,-0.101 0.824,-0.301 0.217,-0.185 0.327,-0.451 0.327,-0.801 v -7.93 c 0,-1.002 -0.204,-1.875 -0.613,-2.619 -0.433,-0.726 -0.997,-1.298 -1.689,-1.717 z m 7.568,-0.613 c -0.309,0 -0.568,0.104 -0.775,0.313 -0.218,0.193 -0.325,0.473 -0.325,0.839 v 11.675 c 0,0.359 0.107,0.641 0.325,0.852 0.243,0.2 0.499,0.301 0.775,0.301 0.302,0 0.564,-0.101 0.792,-0.301 0.224,-0.201 0.334,-0.486 0.334,-0.852 v -11.624 c 0,-0.376 -0.11,-0.673 -0.334,-0.891 -0.201,-0.208 -0.463,-0.312 -0.792,-0.312 z m 0,-4.157 c -0.341,0 -0.652,0.126 -0.925,0.386 -0.244,0.253 -0.364,0.552 -0.364,0.902 0,0.35 0.12,0.647 0.364,0.89 0.256,0.259 0.564,0.389 0.925,0.389 0.361,0 0.659,-0.12 0.896,-0.357 0.24,-0.239 0.357,-0.545 0.357,-0.922 0,-0.375 -0.117,-0.685 -0.351,-0.925 -0.249,-0.243 -0.551,-0.363 -0.902,-0.363 z m 13.697,4.722 c -0.694,-0.376 -1.477,-0.565 -2.356,-0.565 -0.76,0 -1.454,0.156 -2.08,0.464 -0.682,0.334 -1.23,0.776 -1.64,1.328 l -0.052,-0.05 v -0.537 c 0,-0.376 -0.11,-0.673 -0.337,-0.891 -0.198,-0.209 -0.461,-0.313 -0.789,-0.313 -0.309,0 -0.571,0.107 -0.782,0.321 -0.214,0.211 -0.321,0.506 -0.321,0.883 v 11.624 c 0,0.343 0.123,0.635 0.363,0.878 0.218,0.216 0.484,0.325 0.789,0.325 0.312,0 0.564,-0.102 0.766,-0.303 0.208,-0.207 0.312,-0.51 0.312,-0.9 v -7.518 c 0,-0.708 0.156,-1.305 0.468,-1.791 0.282,-0.525 0.665,-0.902 1.152,-1.127 0.483,-0.258 1.003,-0.386 1.564,-0.386 0.869,0 1.609,0.291 2.229,0.876 0.616,0.568 0.928,1.36 0.928,2.379 v 7.566 c 0,0.35 0.107,0.619 0.325,0.801 0.217,0.201 0.474,0.301 0.775,0.301 0.317,0 0.581,-0.092 0.788,-0.275 0.228,-0.199 0.341,-0.477 0.341,-0.826 v -7.619 c 0,-1.105 -0.221,-2.07 -0.665,-2.878 -0.444,-0.795 -1.035,-1.384 -1.778,-1.767 z m 7.708,-0.565 c -0.312,0 -0.568,0.104 -0.779,0.313 -0.214,0.193 -0.324,0.473 -0.324,0.839 v 11.675 c 0,0.359 0.11,0.641 0.324,0.852 0.243,0.2 0.503,0.301 0.779,0.301 0.299,0 0.564,-0.101 0.788,-0.301 0.225,-0.201 0.338,-0.486 0.338,-0.852 v -11.624 c 0,-0.376 -0.113,-0.673 -0.338,-0.891 -0.201,-0.208 -0.464,-0.312 -0.788,-0.312 z m 0,-4.157 c -0.341,0 -0.652,0.126 -0.929,0.386 -0.24,0.253 -0.363,0.552 -0.363,0.902 0,0.35 0.123,0.647 0.363,0.89 0.26,0.259 0.569,0.389 0.929,0.389 0.356,0 0.655,-0.12 0.896,-0.357 0.237,-0.239 0.357,-0.545 0.357,-0.922 0,-0.375 -0.117,-0.685 -0.354,-0.925 -0.25,-0.243 -0.549,-0.363 -0.899,-0.363 z m 11.703,10.67 c -0.243,-0.1 -0.655,-0.254 -1.24,-0.463 -0.6,-0.209 -1.103,-0.406 -1.502,-0.592 -0.377,-0.148 -0.757,-0.386 -1.14,-0.711 -0.304,-0.291 -0.5,-0.652 -0.59,-1.076 0.026,-0.484 0.25,-0.895 0.676,-1.229 0.386,-0.326 0.989,-0.489 1.817,-0.489 0.425,0.026 0.753,0.091 0.977,0.202 0.393,0.191 0.802,0.412 1.227,0.662 0.445,0.278 0.863,0.477 1.266,0.604 0.276,-0.042 0.514,-0.156 0.715,-0.338 0.185,-0.185 0.275,-0.405 0.275,-0.665 0,-0.351 -0.179,-0.701 -0.539,-1.053 -0.393,-0.375 -0.964,-0.693 -1.717,-0.951 -0.749,-0.278 -1.561,-0.414 -2.428,-0.414 -0.801,0.026 -1.583,0.212 -2.343,0.565 -0.643,0.324 -1.165,0.779 -1.567,1.365 -0.373,0.592 -0.562,1.215 -0.562,1.868 0,0.718 0.204,1.327 0.613,1.827 0.341,0.432 0.798,0.812 1.363,1.128 0.62,0.284 1.354,0.603 2.207,0.952 0.925,0.367 1.587,0.67 1.979,0.912 0.701,0.422 1.052,0.936 1.052,1.541 0,0.652 -0.286,1.123 -0.854,1.418 -0.575,0.309 -1.221,0.462 -1.941,0.462 -0.717,-0.05 -1.354,-0.221 -1.905,-0.513 -0.275,-0.169 -0.503,-0.313 -0.688,-0.439 -0.383,-0.275 -0.649,-0.455 -0.802,-0.537 -0.208,-0.117 -0.429,-0.176 -0.665,-0.176 -0.273,0 -0.503,0.091 -0.688,0.275 -0.191,0.209 -0.285,0.445 -0.285,0.715 0.071,0.51 0.278,0.876 0.613,1.102 1.185,1.011 2.678,1.516 4.472,1.516 1.133,-0.024 2.058,-0.221 2.769,-0.589 0.75,-0.394 1.314,-0.88 1.688,-1.464 0.37,-0.552 0.565,-1.201 0.591,-1.943 0,-0.809 -0.221,-1.487 -0.662,-2.029 -0.446,-0.543 -1.172,-1.023 -2.182,-1.443 z m 10.175,-6.363 h -1 v -2.993 c 0,-0.367 -0.11,-0.643 -0.327,-0.828 -0.25,-0.183 -0.526,-0.275 -0.828,-0.275 -0.292,0 -0.555,0.092 -0.788,0.275 -0.208,0.185 -0.312,0.443 -0.312,0.777 v 3.043 h -1.002 c -0.662,0 -1.029,0.334 -1.104,1.003 0.025,0.25 0.136,0.477 0.337,0.678 0.186,0.182 0.438,0.274 0.767,0.274 h 1.002 v 10.723 c 0,0.385 0.104,0.667 0.312,0.852 0.201,0.2 0.447,0.301 0.739,0.301 0.335,0 0.617,-0.1 0.851,-0.295 0.233,-0.197 0.354,-0.467 0.354,-0.807 v -10.774 h 1.101 c 0.266,0 0.5,-0.092 0.701,-0.274 0.165,-0.175 0.25,-0.402 0.25,-0.678 0,-0.292 -0.091,-0.529 -0.273,-0.714 -0.213,-0.191 -0.472,-0.288 -0.78,-0.288 z m 8.759,-0.15 c -0.617,0.026 -1.188,0.276 -1.714,0.753 -0.545,0.474 -0.983,1.014 -1.317,1.615 h -0.049 v -1.164 c 0,-0.368 -0.114,-0.649 -0.338,-0.841 -0.218,-0.208 -0.48,-0.313 -0.792,-0.313 -0.308,0 -0.567,0.105 -0.775,0.313 -0.214,0.192 -0.324,0.473 -0.324,0.841 v 11.573 c 0,0.377 0.11,0.678 0.324,0.902 0.243,0.2 0.52,0.301 0.827,0.301 0.309,0 0.562,-0.101 0.763,-0.301 0.211,-0.211 0.315,-0.492 0.315,-0.852 v -6.615 c 0,-0.803 0.152,-1.486 0.461,-2.06 0.312,-0.573 0.763,-1.024 1.356,-1.358 0.24,-0.117 0.564,-0.227 0.974,-0.328 0.52,-0.14 0.912,-0.295 1.178,-0.461 0.26,-0.175 0.39,-0.461 0.39,-0.854 0,-0.316 -0.13,-0.587 -0.39,-0.815 -0.233,-0.222 -0.529,-0.336 -0.889,-0.336 z m 14.923,0.313 c 0.207,0.2 0.314,0.48 0.314,0.839 v 11.675 c 0,0.375 -0.107,0.667 -0.314,0.878 -0.183,0.183 -0.429,0.274 -0.737,0.274 -0.285,0 -0.532,-0.092 -0.74,-0.277 -0.207,-0.186 -0.314,-0.445 -0.314,-0.781 v -1.008 h -0.049 c -0.954,1.353 -2.142,2.041 -3.57,2.066 -1.142,0 -2.19,-0.281 -3.128,-0.839 -0.964,-0.604 -1.707,-1.415 -2.233,-2.442 -0.525,-1.027 -0.788,-2.244 -0.788,-3.646 0,-1.568 0.285,-2.865 0.866,-3.897 0.571,-1.05 1.331,-1.844 2.266,-2.377 0.893,-0.518 1.808,-0.777 2.742,-0.777 0.802,0 1.503,0.146 2.104,0.438 0.577,0.268 1.158,0.74 1.742,1.417 h 0.049 v -0.751 c 0,-0.326 0.107,-0.591 0.314,-0.791 0.201,-0.209 0.448,-0.313 0.74,-0.313 0.292,0 0.538,0.103 0.736,0.312 z m -1.841,6.685 c 0,-1.029 -0.155,-1.925 -0.464,-2.691 -0.318,-0.783 -0.753,-1.362 -1.302,-1.739 -0.558,-0.409 -1.204,-0.614 -1.931,-0.614 h -0.049 c -1.221,0.052 -2.132,0.539 -2.742,1.464 -0.627,0.935 -0.951,2.126 -0.978,3.58 0,0.898 0.137,1.72 0.412,2.465 0.276,0.758 0.686,1.371 1.228,1.838 0.535,0.484 1.194,0.728 1.979,0.728 1.369,0 2.35,-0.49 2.943,-1.467 0.603,-1.027 0.904,-2.215 0.904,-3.564 z m 17.244,-12.697 c 0.225,0.175 0.335,0.467 0.335,0.876 v 17.65 c 0,0.365 -0.11,0.65 -0.335,0.852 -0.227,0.2 -0.496,0.301 -0.811,0.301 -0.273,0 -0.532,-0.102 -0.772,-0.303 -0.225,-0.21 -0.338,-0.479 -0.338,-0.807 v -0.744 h -0.052 c -0.225,0.488 -0.617,0.917 -1.175,1.285 -0.562,0.353 -1.309,0.543 -2.236,0.568 -1.221,0 -2.275,-0.291 -3.161,-0.865 -0.925,-0.592 -1.636,-1.413 -2.129,-2.467 -0.487,-1.045 -0.74,-2.242 -0.767,-3.596 0,-0.986 0.134,-1.893 0.403,-2.717 0.282,-0.853 0.681,-1.614 1.19,-2.281 0.49,-0.61 1.107,-1.115 1.844,-1.516 0.685,-0.36 1.464,-0.539 2.333,-0.539 1.555,0 2.788,0.62 3.697,1.855 h 0.052 v -6.727 c 0,-0.36 0.113,-0.636 0.338,-0.828 0.23,-0.201 0.489,-0.3 0.772,-0.3 0.316,0.003 0.585,0.102 0.812,0.303 z m -1.659,12.697 c 0,-1.012 -0.162,-1.891 -0.49,-2.641 -0.314,-0.777 -0.759,-1.365 -1.327,-1.764 -0.555,-0.425 -1.197,-0.64 -1.931,-0.64 -0.86,0 -1.569,0.247 -2.11,0.739 -0.567,0.491 -0.979,1.127 -1.229,1.902 -0.267,0.677 -0.416,1.458 -0.438,2.353 0,1.385 0.302,2.566 0.902,3.539 0.584,0.976 1.477,1.49 2.675,1.542 0.918,0 1.678,-0.253 2.281,-0.753 0.587,-0.483 1.003,-1.105 1.253,-1.863 0.252,-0.711 0.389,-1.516 0.414,-2.414 z m 17.056,-3.454 c 0.474,1.029 0.714,2.181 0.714,3.459 0,1.302 -0.24,2.467 -0.714,3.496 -0.478,1.051 -1.179,1.898 -2.106,2.541 -0.887,0.627 -1.944,0.939 -3.181,0.939 -1.237,0 -2.298,-0.312 -3.181,-0.939 -0.948,-0.66 -1.655,-1.516 -2.129,-2.568 -0.478,-1.025 -0.714,-2.184 -0.714,-3.469 0,-1.363 0.253,-2.557 0.762,-3.583 0.52,-1.094 1.233,-1.935 2.155,-2.519 0.941,-0.601 1.979,-0.902 3.106,-0.902 1.236,0.026 2.294,0.351 3.181,0.977 0.909,0.645 1.613,1.501 2.107,2.568 z m -1.542,3.454 c 0,-0.912 -0.146,-1.756 -0.438,-2.54 -0.285,-0.761 -0.701,-1.365 -1.253,-1.816 -0.562,-0.458 -1.246,-0.688 -2.054,-0.688 -0.802,0 -1.486,0.214 -2.055,0.64 -0.574,0.449 -1.003,1.053 -1.278,1.814 -0.292,0.781 -0.438,1.645 -0.438,2.59 0,1.281 0.302,2.44 0.902,3.465 0.584,1.043 1.521,1.565 2.82,1.565 0.834,0 1.535,-0.237 2.103,-0.704 0.542,-0.408 0.961,-1.003 1.253,-1.789 0.266,-0.699 0.412,-1.545 0.438,-2.537 z m 11.112,-6.998 c -0.616,0.026 -1.188,0.276 -1.714,0.753 -0.545,0.474 -0.979,1.014 -1.317,1.615 h -0.049 v -1.164 c 0,-0.368 -0.11,-0.649 -0.337,-0.841 -0.218,-0.208 -0.48,-0.313 -0.789,-0.313 -0.309,0 -0.567,0.105 -0.778,0.313 -0.215,0.192 -0.325,0.473 -0.325,0.841 v 11.573 c 0,0.377 0.11,0.678 0.325,0.902 0.243,0.2 0.519,0.301 0.83,0.301 0.309,0 0.562,-0.101 0.763,-0.301 0.208,-0.211 0.312,-0.492 0.312,-0.852 v -6.615 c 0,-0.803 0.152,-1.486 0.465,-2.06 0.308,-0.573 0.759,-1.024 1.353,-1.358 0.24,-0.117 0.565,-0.227 0.978,-0.328 0.516,-0.14 0.912,-0.295 1.178,-0.461 0.257,-0.175 0.387,-0.461 0.387,-0.854 0,-0.316 -0.13,-0.587 -0.387,-0.815 -0.235,-0.222 -0.531,-0.336 -0.895,-0.336 z m 13.872,7.879 h -8.52 c 0.029,0.925 0.23,1.683 0.604,2.275 0.344,0.625 0.834,1.096 1.479,1.41 0.633,0.309 1.327,0.464 2.08,0.464 1.351,0 2.574,-0.471 3.668,-1.413 0.37,-0.276 0.652,-0.41 0.854,-0.41 0.266,0 0.464,0.094 0.587,0.287 0.137,0.183 0.201,0.403 0.201,0.663 0,0.302 -0.106,0.577 -0.324,0.827 -0.451,0.504 -1.162,0.971 -2.129,1.406 -0.938,0.395 -1.931,0.592 -2.982,0.592 -1.136,0 -2.1,-0.216 -2.896,-0.645 -0.844,-0.416 -1.502,-0.963 -1.979,-1.637 -0.51,-0.719 -0.876,-1.471 -1.104,-2.254 -0.214,-0.728 -0.334,-1.541 -0.36,-2.441 l 0.049,-0.1 v -0.026 c 0.049,-1.179 0.318,-2.288 0.802,-3.333 0.493,-1.06 1.185,-1.908 2.08,-2.541 0.893,-0.643 1.941,-0.977 3.146,-1.003 1.2,0 2.245,0.318 3.128,0.953 0.929,0.644 1.64,1.49 2.129,2.541 0.504,1.079 0.753,2.172 0.753,3.283 -10e-4,0.734 -0.423,1.102 -1.266,1.102 z m -0.99,-1.717 c -0.023,-1.26 -0.354,-2.27 -0.99,-3.03 -0.669,-0.759 -1.555,-1.152 -2.645,-1.178 -1.156,0 -2.074,0.367 -2.749,1.104 -0.705,0.733 -1.084,1.771 -1.146,3.104 z m 12.032,0.351 c -0.24,-0.1 -0.656,-0.254 -1.243,-0.463 -0.598,-0.209 -1.101,-0.406 -1.5,-0.592 -0.376,-0.148 -0.756,-0.386 -1.143,-0.711 -0.302,-0.291 -0.496,-0.652 -0.587,-1.076 0.025,-0.484 0.25,-0.895 0.675,-1.229 0.387,-0.326 0.993,-0.489 1.817,-0.489 0.426,0.026 0.75,0.091 0.978,0.202 0.393,0.191 0.805,0.412 1.227,0.662 0.441,0.278 0.866,0.477 1.266,0.604 0.275,-0.042 0.516,-0.156 0.717,-0.338 0.183,-0.185 0.273,-0.405 0.273,-0.665 0,-0.351 -0.179,-0.701 -0.539,-1.053 -0.393,-0.375 -0.964,-0.693 -1.717,-0.951 -0.75,-0.278 -1.562,-0.414 -2.428,-0.414 -0.802,0.026 -1.584,0.212 -2.344,0.565 -0.643,0.324 -1.165,0.779 -1.563,1.365 -0.377,0.592 -0.568,1.215 -0.568,1.868 0,0.718 0.208,1.327 0.616,1.827 0.345,0.432 0.799,0.812 1.363,1.128 0.62,0.284 1.356,0.603 2.207,0.952 0.929,0.367 1.587,0.67 1.979,0.912 0.701,0.422 1.052,0.936 1.052,1.541 0,0.652 -0.282,1.123 -0.851,1.418 -0.577,0.309 -1.227,0.462 -1.943,0.462 -0.718,-0.05 -1.351,-0.221 -1.905,-0.513 -0.276,-0.169 -0.503,-0.313 -0.688,-0.439 -0.383,-0.275 -0.648,-0.455 -0.801,-0.537 -0.208,-0.117 -0.429,-0.176 -0.662,-0.176 -0.276,0 -0.507,0.091 -0.691,0.275 -0.191,0.209 -0.286,0.445 -0.286,0.715 0.075,0.51 0.276,0.876 0.61,1.102 1.188,1.011 2.678,1.516 4.476,1.516 1.136,-0.024 2.058,-0.221 2.769,-0.589 0.75,-0.394 1.314,-0.88 1.69,-1.464 0.367,-0.552 0.562,-1.201 0.588,-1.943 0,-0.809 -0.221,-1.487 -0.665,-2.029 -0.443,-0.543 -1.171,-1.023 -2.179,-1.443 z m 24.448,-12.212 c 0.224,0.175 0.337,0.467 0.337,0.876 v 17.65 c 0,0.365 -0.113,0.65 -0.337,0.852 -0.225,0.2 -0.497,0.301 -0.809,0.301 -0.275,0 -0.535,-0.102 -0.772,-0.303 -0.224,-0.21 -0.337,-0.479 -0.337,-0.807 v -0.744 h -0.053 c -0.224,0.488 -0.616,0.917 -1.178,1.285 -0.562,0.353 -1.305,0.543 -2.233,0.568 -1.22,0 -2.274,-0.291 -3.161,-0.865 -0.928,-0.592 -1.639,-1.413 -2.132,-2.467 -0.483,-1.045 -0.736,-2.242 -0.763,-3.596 0,-0.986 0.133,-1.893 0.399,-2.717 0.285,-0.853 0.682,-1.614 1.19,-2.281 0.497,-0.61 1.11,-1.115 1.844,-1.516 0.685,-0.36 1.467,-0.539 2.334,-0.539 1.558,0 2.791,0.62 3.699,1.855 h 0.053 v -6.727 c 0,-0.36 0.113,-0.636 0.337,-0.828 0.23,-0.201 0.487,-0.3 0.772,-0.3 0.313,0.003 0.585,0.102 0.81,0.303 z m -1.656,12.697 c 0,-1.012 -0.166,-1.891 -0.493,-2.641 -0.315,-0.777 -0.76,-1.365 -1.324,-1.764 -0.556,-0.425 -1.198,-0.64 -1.935,-0.64 -0.86,0 -1.564,0.247 -2.109,0.739 -0.568,0.491 -0.978,1.127 -1.228,1.902 -0.269,0.677 -0.415,1.458 -0.441,2.353 0,1.385 0.303,2.566 0.902,3.539 0.588,0.976 1.48,1.49 2.675,1.542 0.922,0 1.681,-0.253 2.284,-0.753 0.585,-0.483 1.003,-1.105 1.253,-1.863 0.25,-0.711 0.39,-1.516 0.416,-2.414 z m 16.25,0.881 h -8.52 c 0.026,0.925 0.228,1.683 0.604,2.275 0.341,0.625 0.834,1.096 1.477,1.41 0.637,0.309 1.331,0.464 2.081,0.464 1.353,0 2.576,-0.471 3.67,-1.413 0.37,-0.276 0.652,-0.41 0.851,-0.41 0.27,0 0.468,0.094 0.591,0.287 0.133,0.183 0.201,0.403 0.201,0.663 0,0.302 -0.11,0.577 -0.324,0.827 -0.451,0.504 -1.162,0.971 -2.133,1.406 -0.935,0.395 -1.928,0.592 -2.979,0.592 -1.136,0 -2.103,-0.216 -2.895,-0.645 -0.844,-0.416 -1.506,-0.963 -1.979,-1.637 -0.51,-0.719 -0.877,-1.471 -1.104,-2.254 -0.218,-0.728 -0.338,-1.541 -0.364,-2.441 l 0.053,-0.1 v -0.026 c 0.048,-1.179 0.317,-2.288 0.798,-3.333 0.493,-1.06 1.188,-1.908 2.084,-2.541 0.893,-0.643 1.938,-0.977 3.142,-1.003 1.2,0 2.246,0.318 3.132,0.953 0.925,0.644 1.636,1.49 2.129,2.541 0.5,1.079 0.75,2.172 0.75,3.283 -0.002,0.734 -0.421,1.102 -1.265,1.102 z m -0.99,-1.717 c -0.025,-1.26 -0.356,-2.27 -0.989,-3.03 -0.67,-0.759 -1.555,-1.152 -2.648,-1.178 -1.152,0 -2.071,0.367 -2.749,1.104 -0.701,0.733 -1.081,1.771 -1.143,3.104 z m 20.914,-10.621 h -6.899 c -0.27,0 -0.493,0.109 -0.679,0.325 -0.185,0.251 -0.275,0.562 -0.275,0.928 v 16.034 c 0,0.359 0.106,0.641 0.324,0.852 0.243,0.2 0.503,0.301 0.782,0.301 0.299,0 0.562,-0.101 0.785,-0.301 0.228,-0.225 0.338,-0.525 0.338,-0.902 v -7.002 h 4.923 c 0.286,0 0.517,-0.105 0.701,-0.316 0.166,-0.188 0.25,-0.428 0.25,-0.711 0,-0.317 -0.084,-0.57 -0.25,-0.762 -0.185,-0.209 -0.435,-0.314 -0.75,-0.314 h -4.874 v -6.026 h 5.41 c 0.344,0 0.61,-0.096 0.802,-0.287 0.169,-0.169 0.253,-0.406 0.253,-0.714 0,-0.302 -0.074,-0.569 -0.224,-0.801 -0.168,-0.204 -0.374,-0.304 -0.617,-0.304 z m 4.892,0.302 c -0.345,0 -0.652,0.126 -0.929,0.386 -0.243,0.253 -0.363,0.552 -0.363,0.902 0,0.35 0.12,0.647 0.363,0.89 0.26,0.259 0.564,0.389 0.929,0.389 0.356,0 0.655,-0.12 0.892,-0.357 0.24,-0.239 0.36,-0.545 0.36,-0.922 0,-0.375 -0.116,-0.685 -0.351,-0.925 -0.249,-0.243 -0.551,-0.363 -0.901,-0.363 z m 0,4.157 c -0.312,0 -0.571,0.104 -0.779,0.313 -0.214,0.193 -0.324,0.473 -0.324,0.839 v 11.675 c 0,0.359 0.11,0.641 0.324,0.852 0.243,0.2 0.5,0.301 0.779,0.301 0.302,0 0.561,-0.101 0.788,-0.301 0.224,-0.201 0.338,-0.486 0.338,-0.852 v -11.624 c 0,-0.376 -0.114,-0.673 -0.338,-0.891 -0.201,-0.208 -0.464,-0.312 -0.788,-0.312 z m 13.692,0.565 c -0.691,-0.376 -1.477,-0.565 -2.354,-0.565 -0.759,0 -1.453,0.156 -2.08,0.464 -0.685,0.334 -1.233,0.776 -1.642,1.328 l -0.049,-0.05 v -0.537 c 0,-0.376 -0.114,-0.673 -0.338,-0.891 -0.201,-0.209 -0.464,-0.313 -0.789,-0.313 -0.312,0 -0.57,0.107 -0.785,0.321 -0.211,0.211 -0.317,0.506 -0.317,0.883 v 11.624 c 0,0.343 0.119,0.635 0.363,0.878 0.217,0.216 0.48,0.325 0.788,0.325 0.309,0 0.565,-0.102 0.767,-0.303 0.207,-0.207 0.312,-0.51 0.312,-0.9 v -7.518 c 0,-0.708 0.152,-1.305 0.464,-1.791 0.282,-0.525 0.669,-0.902 1.152,-1.127 0.483,-0.258 1.006,-0.386 1.564,-0.386 0.869,0 1.612,0.291 2.229,0.876 0.616,0.568 0.928,1.36 0.928,2.379 v 7.566 c 0,0.35 0.107,0.619 0.325,0.801 0.217,0.201 0.477,0.301 0.778,0.301 0.315,0 0.578,-0.092 0.785,-0.275 0.228,-0.199 0.341,-0.477 0.341,-0.826 v -7.619 c 0,-1.105 -0.221,-2.07 -0.662,-2.878 -0.443,-0.795 -1.037,-1.384 -1.78,-1.767 z m 10.065,2.129 c 0.558,-0.461 1.253,-0.688 2.077,-0.688 0.312,0 0.594,0.032 0.854,0.099 0.356,0.101 0.711,0.213 1.052,0.338 0.148,0.042 0.285,0.084 0.398,0.125 0.12,0.042 0.201,0.07 0.247,0.081 0.045,0.013 0.084,0.029 0.12,0.045 0.302,-0.026 0.539,-0.126 0.724,-0.302 0.185,-0.201 0.275,-0.416 0.275,-0.651 0,-0.133 -0.032,-0.297 -0.101,-0.488 -0.191,-0.351 -0.623,-0.64 -1.288,-0.863 -0.649,-0.26 -1.447,-0.39 -2.382,-0.39 -1.017,0.026 -1.925,0.237 -2.717,0.639 -0.785,0.417 -1.422,0.958 -1.905,1.617 -0.474,0.683 -0.834,1.457 -1.077,2.317 -0.233,0.893 -0.348,1.808 -0.348,2.743 0.022,1.229 0.276,2.34 0.763,3.332 0.49,1.045 1.201,1.858 2.129,2.441 0.961,0.594 2.045,0.891 3.256,0.891 0.812,0 1.619,-0.125 2.418,-0.375 0.769,-0.27 1.151,-0.733 1.151,-1.391 0,-0.292 -0.077,-0.521 -0.236,-0.689 -0.166,-0.176 -0.373,-0.264 -0.613,-0.264 -0.144,0 -0.331,0.051 -0.565,0.15 -0.182,0.094 -0.344,0.172 -0.486,0.24 -0.117,0.041 -0.221,0.078 -0.309,0.113 -0.088,0.032 -0.165,0.062 -0.23,0.086 -0.143,0.059 -0.312,0.105 -0.513,0.137 -0.133,0.033 -0.341,0.069 -0.616,0.1 -0.101,-0.03 -0.228,-0.05 -0.387,-0.05 -0.441,-0.05 -0.831,-0.146 -1.158,-0.286 -0.331,-0.143 -0.63,-0.348 -0.902,-0.616 -0.272,-0.267 -0.49,-0.567 -0.655,-0.902 -0.529,-1.025 -0.792,-2.161 -0.792,-3.404 0.025,-0.804 0.197,-1.581 0.513,-2.332 0.264,-0.726 0.702,-1.326 1.303,-1.803 z m 20.083,-2.381 c 0.208,0.2 0.314,0.48 0.314,0.839 v 11.675 c 0,0.375 -0.106,0.667 -0.314,0.878 -0.186,0.183 -0.429,0.274 -0.74,0.274 -0.282,0 -0.529,-0.092 -0.736,-0.277 -0.211,-0.186 -0.315,-0.445 -0.315,-0.781 v -1.008 h -0.048 c -0.955,1.353 -2.143,2.041 -3.57,2.066 -1.146,0 -2.19,-0.281 -3.132,-0.839 -0.961,-0.604 -1.704,-1.415 -2.229,-2.442 -0.529,-1.027 -0.792,-2.244 -0.792,-3.646 0,-1.568 0.288,-2.865 0.866,-3.897 0.574,-1.05 1.331,-1.844 2.269,-2.377 0.89,-0.518 1.805,-0.777 2.742,-0.777 0.802,0 1.503,0.146 2.104,0.438 0.577,0.268 1.158,0.74 1.743,1.417 h 0.048 v -0.751 c 0,-0.326 0.104,-0.591 0.315,-0.791 0.197,-0.209 0.444,-0.313 0.736,-0.313 0.292,0 0.538,0.103 0.739,0.312 z m -1.84,6.685 c 0,-1.029 -0.156,-1.925 -0.468,-2.691 -0.314,-0.783 -0.75,-1.362 -1.302,-1.739 -0.558,-0.409 -1.204,-0.614 -1.928,-0.614 h -0.049 c -1.22,0.052 -2.135,0.539 -2.745,1.464 -0.627,0.935 -0.951,2.126 -0.978,3.58 0,0.898 0.14,1.72 0.412,2.465 0.279,0.758 0.688,1.371 1.23,1.838 0.532,0.484 1.191,0.728 1.979,0.728 1.366,0 2.35,-0.49 2.944,-1.467 0.602,-1.027 0.905,-2.215 0.905,-3.564 z m 14.958,0.957 c -0.441,-0.542 -1.168,-1.021 -2.178,-1.441 -0.243,-0.1 -0.655,-0.254 -1.24,-0.463 -0.604,-0.209 -1.103,-0.406 -1.502,-0.592 -0.377,-0.148 -0.757,-0.386 -1.143,-0.711 -0.302,-0.291 -0.497,-0.652 -0.591,-1.076 0.026,-0.484 0.253,-0.895 0.679,-1.229 0.386,-0.326 0.989,-0.489 1.817,-0.489 0.425,0.026 0.749,0.091 0.977,0.202 0.393,0.191 0.802,0.412 1.227,0.662 0.441,0.278 0.863,0.477 1.266,0.604 0.276,-0.042 0.514,-0.156 0.715,-0.338 0.185,-0.185 0.275,-0.405 0.275,-0.665 0,-0.351 -0.182,-0.701 -0.539,-1.053 -0.393,-0.375 -0.967,-0.693 -1.717,-0.951 -0.753,-0.278 -1.561,-0.414 -2.431,-0.414 -0.802,0.026 -1.58,0.212 -2.34,0.565 -0.643,0.324 -1.168,0.779 -1.564,1.365 -0.38,0.592 -0.568,1.215 -0.568,1.868 0,0.718 0.205,1.327 0.617,1.827 0.341,0.432 0.795,0.812 1.363,1.128 0.62,0.284 1.354,0.603 2.207,0.952 0.925,0.367 1.587,0.67 1.977,0.912 0.7,0.422 1.055,0.936 1.055,1.541 0,0.652 -0.286,1.123 -0.854,1.418 -0.575,0.309 -1.224,0.462 -1.941,0.462 -0.721,-0.05 -1.354,-0.221 -1.905,-0.513 -0.275,-0.169 -0.506,-0.313 -0.688,-0.439 -0.383,-0.275 -0.652,-0.455 -0.802,-0.537 -0.208,-0.117 -0.429,-0.176 -0.662,-0.176 -0.279,0 -0.51,0.091 -0.691,0.275 -0.191,0.209 -0.289,0.445 -0.289,0.715 0.078,0.51 0.283,0.876 0.613,1.102 1.188,1.011 2.678,1.516 4.473,1.516 1.136,-0.024 2.058,-0.221 2.769,-0.589 0.753,-0.394 1.317,-0.88 1.69,-1.464 0.37,-0.552 0.565,-1.201 0.591,-1.943 -10e-4,-0.811 -0.222,-1.489 -0.666,-2.031 z"
   id="path2" />
	<path
   fill="#1e1e1c"
   d="m 214.959,451.492 v 0.398 c 0,1.238 -0.17,2.48 -0.513,3.723 -0.334,1.252 -1.079,2.368 -2.229,3.344 -1.16,0.969 -2.828,1.453 -4.998,1.453 -1.42,0 -2.642,-0.289 -3.669,-0.864 -1.021,-0.56 -1.85,-1.307 -2.494,-2.241 -0.626,-0.868 -1.099,-1.842 -1.415,-2.918 -0.268,-1.038 -0.422,-2.039 -0.464,-3.008 0,-1.227 0.172,-2.447 0.513,-3.658 0.334,-1.152 0.849,-2.162 1.54,-3.031 0.678,-0.877 1.525,-1.564 2.544,-2.074 1.02,-0.504 2.185,-0.771 3.496,-0.807 1.311,0 2.541,0.21 3.696,0.627 1.091,0.365 1.944,0.915 2.555,1.643 0.175,0.165 0.263,0.412 0.263,0.736 0,0.284 -0.107,0.518 -0.321,0.696 -0.213,0.181 -0.473,0.282 -0.781,0.308 -0.334,-0.025 -0.628,-0.139 -0.878,-0.338 -0.626,-0.486 -1.285,-0.901 -1.979,-1.254 -0.626,-0.31 -1.426,-0.462 -2.404,-0.462 -1.027,0 -1.925,0.224 -2.692,0.67 -0.767,0.446 -1.371,1.027 -1.805,1.748 -0.469,0.741 -0.797,1.517 -0.99,2.329 -0.199,0.768 -0.312,1.58 -0.339,2.441 0,1.068 0.166,2.146 0.49,3.232 0.341,1.135 0.905,2.106 1.69,2.918 0.818,0.819 1.914,1.275 3.281,1.365 0.987,0 1.918,-0.21 2.795,-0.625 0.842,-0.419 1.536,-1.064 2.078,-1.944 0.534,-0.843 0.804,-1.91 0.804,-3.205 v -0.804 h -3.259 c -0.626,0 -0.975,-0.33 -1.052,-1 0.077,-0.736 0.394,-1.103 0.953,-1.103 h 4.094 c 0.994,0.001 1.49,0.568 1.49,1.705 z m 14.184,-4.746 c 0.207,0.199 0.312,0.479 0.312,0.835 v 11.677 c 0,0.377 -0.105,0.668 -0.312,0.879 -0.186,0.184 -0.431,0.273 -0.74,0.273 -0.284,0 -0.53,-0.092 -0.738,-0.275 -0.208,-0.186 -0.313,-0.446 -0.313,-0.782 v -1.009 h -0.05 c -0.953,1.354 -2.143,2.043 -3.57,2.066 -1.143,0 -2.188,-0.279 -3.132,-0.84 -0.961,-0.601 -1.704,-1.415 -2.229,-2.441 -0.526,-1.028 -0.789,-2.242 -0.789,-3.647 0,-1.567 0.287,-2.866 0.863,-3.895 0.578,-1.052 1.331,-1.845 2.269,-2.379 0.893,-0.517 1.808,-0.776 2.742,-0.776 0.802,0 1.502,0.145 2.104,0.438 0.578,0.268 1.158,0.74 1.743,1.414 h 0.05 v -0.75 c 0,-0.325 0.105,-0.588 0.313,-0.787 0.199,-0.21 0.446,-0.314 0.738,-0.314 0.292,0 0.538,0.103 0.739,0.313 z m -1.842,6.68 c 0,-1.025 -0.156,-1.921 -0.465,-2.689 -0.317,-0.783 -0.751,-1.361 -1.301,-1.736 -0.562,-0.41 -1.204,-0.615 -1.932,-0.615 h -0.049 c -1.22,0.051 -2.134,0.539 -2.743,1.465 -0.625,0.932 -0.953,2.126 -0.976,3.576 0,0.902 0.136,1.725 0.412,2.465 0.276,0.762 0.685,1.372 1.227,1.841 0.535,0.481 1.194,0.726 1.979,0.726 1.37,0 2.352,-0.488 2.944,-1.464 0.603,-1.027 0.904,-2.217 0.904,-3.569 z m 7.441,-12.943 c -0.309,0 -0.567,0.104 -0.775,0.312 -0.218,0.191 -0.324,0.48 -0.324,0.863 v 17.552 c 0,0.376 0.106,0.665 0.324,0.876 0.226,0.216 0.483,0.324 0.775,0.324 0.302,0 0.564,-0.1 0.789,-0.301 0.226,-0.223 0.339,-0.523 0.339,-0.899 v -17.601 c 0,-0.368 -0.115,-0.647 -0.344,-0.84 -0.229,-0.191 -0.49,-0.286 -0.784,-0.286 z m 6.367,1.788 c -0.344,0 -0.653,0.13 -0.929,0.389 -0.243,0.251 -0.363,0.553 -0.363,0.903 0,0.35 0.12,0.646 0.363,0.89 0.26,0.258 0.568,0.387 0.929,0.387 0.356,0 0.655,-0.117 0.896,-0.355 0.237,-0.24 0.357,-0.545 0.357,-0.921 0,-0.375 -0.12,-0.687 -0.351,-0.929 -0.253,-0.242 -0.551,-0.364 -0.902,-0.364 z m 0,4.161 c -0.312,0 -0.568,0.104 -0.775,0.314 -0.218,0.191 -0.328,0.471 -0.328,0.835 v 11.677 c 0,0.359 0.11,0.644 0.328,0.852 0.239,0.201 0.499,0.301 0.775,0.301 0.299,0 0.564,-0.1 0.788,-0.301 0.225,-0.2 0.338,-0.48 0.338,-0.852 v -11.623 c 0,-0.377 -0.113,-0.674 -0.338,-0.889 -0.201,-0.21 -0.463,-0.314 -0.788,-0.314 z m 8.721,2.693 c 0.558,-0.46 1.253,-0.689 2.077,-0.689 0.312,0 0.594,0.035 0.854,0.1 0.356,0.102 0.711,0.215 1.052,0.34 0.148,0.041 0.285,0.082 0.402,0.125 0.113,0.04 0.194,0.069 0.243,0.08 0.045,0.016 0.084,0.028 0.117,0.045 0.302,-0.025 0.542,-0.125 0.727,-0.301 0.185,-0.199 0.275,-0.418 0.275,-0.652 0,-0.133 -0.032,-0.295 -0.097,-0.49 -0.195,-0.35 -0.623,-0.636 -1.295,-0.863 -0.649,-0.258 -1.444,-0.387 -2.376,-0.387 -1.02,0.023 -1.928,0.238 -2.72,0.637 -0.785,0.419 -1.422,0.957 -1.905,1.619 -0.474,0.684 -0.834,1.457 -1.077,2.314 -0.233,0.896 -0.351,1.811 -0.351,2.746 0.025,1.227 0.282,2.336 0.766,3.332 0.49,1.043 1.201,1.857 2.129,2.441 0.961,0.594 2.045,0.889 3.256,0.889 0.812,0 1.616,-0.125 2.418,-0.375 0.769,-0.268 1.155,-0.73 1.155,-1.392 0,-0.292 -0.081,-0.521 -0.24,-0.69 -0.166,-0.173 -0.373,-0.262 -0.613,-0.262 -0.144,0 -0.331,0.051 -0.565,0.152 -0.182,0.091 -0.347,0.168 -0.486,0.236 -0.117,0.043 -0.221,0.08 -0.309,0.113 -0.088,0.033 -0.165,0.062 -0.233,0.088 -0.14,0.059 -0.312,0.104 -0.513,0.137 -0.133,0.034 -0.338,0.068 -0.613,0.1 -0.098,-0.031 -0.23,-0.049 -0.39,-0.049 -0.441,-0.051 -0.828,-0.145 -1.155,-0.287 -0.331,-0.144 -0.633,-0.348 -0.902,-0.613 -0.272,-0.269 -0.49,-0.568 -0.659,-0.902 -0.525,-1.029 -0.788,-2.164 -0.788,-3.408 0.025,-0.802 0.194,-1.578 0.516,-2.33 0.261,-0.726 0.697,-1.329 1.3,-1.804 z m 10.158,-6.854 c -0.341,0 -0.649,0.13 -0.925,0.389 -0.243,0.251 -0.363,0.553 -0.363,0.903 0,0.35 0.12,0.646 0.363,0.89 0.256,0.258 0.567,0.387 0.925,0.387 0.36,0 0.659,-0.117 0.896,-0.355 0.24,-0.24 0.357,-0.545 0.357,-0.921 0,-0.375 -0.117,-0.687 -0.351,-0.929 -0.249,-0.242 -0.551,-0.364 -0.902,-0.364 z m 0,4.161 c -0.309,0 -0.568,0.104 -0.775,0.314 -0.218,0.191 -0.328,0.471 -0.328,0.835 v 11.677 c 0,0.359 0.11,0.644 0.328,0.852 0.243,0.201 0.499,0.301 0.775,0.301 0.302,0 0.564,-0.1 0.789,-0.301 0.227,-0.2 0.34,-0.48 0.34,-0.852 v -11.623 c 0,-0.377 -0.113,-0.674 -0.34,-0.889 -0.198,-0.21 -0.461,-0.314 -0.789,-0.314 z m 16.527,1.149 v 11.677 c 0,0.377 -0.104,0.668 -0.315,0.879 -0.185,0.184 -0.428,0.273 -0.739,0.273 -0.282,0 -0.529,-0.092 -0.737,-0.275 -0.207,-0.186 -0.314,-0.446 -0.314,-0.782 v -1.009 h -0.049 c -0.951,1.354 -2.142,2.043 -3.57,2.066 -1.142,0 -2.188,-0.279 -3.132,-0.84 -0.96,-0.601 -1.703,-1.415 -2.229,-2.441 -0.525,-1.028 -0.788,-2.242 -0.788,-3.647 0,-1.567 0.288,-2.866 0.863,-3.895 0.577,-1.052 1.333,-1.845 2.269,-2.379 0.893,-0.517 1.808,-0.776 2.742,-0.776 0.802,0 1.503,0.145 2.106,0.438 0.574,0.268 1.155,0.74 1.739,1.414 h 0.049 v -0.75 c 0,-0.325 0.107,-0.588 0.314,-0.787 0.201,-0.21 0.445,-0.314 0.737,-0.314 0.295,0 0.542,0.104 0.739,0.314 0.21,0.198 0.315,0.478 0.315,0.834 z m -2.156,5.845 c 0,-1.025 -0.153,-1.921 -0.464,-2.689 -0.318,-0.783 -0.75,-1.361 -1.302,-1.736 -0.558,-0.41 -1.204,-0.615 -1.931,-0.615 h -0.049 c -1.221,0.051 -2.136,0.539 -2.742,1.465 -0.627,0.932 -0.951,2.126 -0.978,3.576 0,0.902 0.137,1.725 0.412,2.465 0.276,0.762 0.686,1.372 1.228,1.841 0.535,0.481 1.194,0.726 1.979,0.726 1.369,0 2.353,-0.488 2.943,-1.464 0.603,-1.027 0.904,-2.217 0.904,-3.569 z"
   id="path4" />
	<path
   fill="#a61834"
   d="m 143.378,385.195 c 0,2.315 -1.877,4.195 -4.192,4.195 -2.317,0 -4.197,-1.879 -4.197,-4.195 0,-2.317 1.88,-4.195 4.197,-4.195 2.315,0 4.192,1.877 4.192,4.195 z m -4.192,7.644 c -2.317,0 -4.197,1.879 -4.197,4.195 0,2.316 1.88,4.195 4.197,4.195 2.315,0 4.192,-1.879 4.192,-4.195 0,-2.315 -1.877,-4.195 -4.192,-4.195 z m 0,11.84 c -2.317,0 -4.197,1.879 -4.197,4.196 0,2.317 1.88,4.195 4.197,4.195 2.315,0 4.192,-1.877 4.192,-4.195 0,-2.318 -1.877,-4.196 -4.192,-4.196 z m 0,11.841 c -2.317,0 -4.197,1.878 -4.197,4.195 0,2.317 1.88,4.197 4.197,4.197 2.315,0 4.192,-1.88 4.192,-4.197 0,-2.317 -1.877,-4.195 -4.192,-4.195 z m 0,11.839 c -2.317,0 -4.197,1.879 -4.197,4.198 0,2.314 1.88,4.193 4.197,4.193 2.315,0 4.192,-1.879 4.192,-4.193 0,-2.319 -1.877,-4.198 -4.192,-4.198 z m 0,11.838 c -2.317,0 -4.197,1.883 -4.197,4.2 0,2.315 1.88,4.194 4.197,4.194 2.315,0 4.192,-1.879 4.192,-4.194 0,-2.317 -1.877,-4.2 -4.192,-4.2 z m 0,11.844 c -2.317,0 -4.197,1.879 -4.197,4.195 0,2.314 1.88,4.197 4.197,4.197 2.315,0 4.192,-1.883 4.192,-4.197 0,-2.316 -1.877,-4.195 -4.192,-4.195 z M 127.346,381 c -2.319,0 -4.196,1.877 -4.196,4.195 0,2.315 1.877,4.195 4.196,4.195 2.315,0 4.193,-1.879 4.193,-4.195 0,-2.318 -1.878,-4.195 -4.193,-4.195 z m 0,11.839 c -2.319,0 -4.196,1.879 -4.196,4.195 0,2.316 1.877,4.195 4.196,4.195 2.315,0 4.193,-1.879 4.193,-4.195 0,-2.315 -1.878,-4.195 -4.193,-4.195 z m 0,11.84 c -2.319,0 -4.196,1.879 -4.196,4.196 0,2.317 1.877,4.195 4.196,4.195 2.315,0 4.193,-1.877 4.193,-4.195 0,-2.318 -1.878,-4.196 -4.193,-4.196 z m 0,11.841 c -2.319,0 -4.196,1.878 -4.196,4.195 0,2.317 1.877,4.197 4.196,4.197 2.315,0 4.193,-1.88 4.193,-4.197 0,-2.317 -1.878,-4.195 -4.193,-4.195 z m 0,11.839 c -2.319,0 -4.196,1.879 -4.196,4.198 0,2.314 1.877,4.193 4.196,4.193 2.315,0 4.193,-1.879 4.193,-4.193 0,-2.319 -1.878,-4.198 -4.193,-4.198 z m 0,11.838 c -2.319,0 -4.196,1.883 -4.196,4.2 0,2.315 1.877,4.194 4.196,4.194 2.315,0 4.193,-1.879 4.193,-4.194 0,-2.317 -1.878,-4.2 -4.193,-4.2 z m 0,11.844 c -2.319,0 -4.196,1.879 -4.196,4.195 0,2.314 1.877,4.197 4.196,4.197 2.315,0 4.193,-1.883 4.193,-4.197 0,-2.316 -1.878,-4.195 -4.193,-4.195 z m -11.841,-59.202 c -2.319,0 -4.197,1.879 -4.197,4.195 0,2.316 1.878,4.195 4.197,4.195 2.315,0 4.194,-1.879 4.194,-4.195 0,-2.315 -1.879,-4.195 -4.194,-4.195 z m 0,11.84 c -2.319,0 -4.197,1.879 -4.197,4.196 0,2.317 1.878,4.195 4.197,4.195 2.315,0 4.194,-1.877 4.194,-4.195 0,-2.318 -1.879,-4.196 -4.194,-4.196 z m 0,11.841 c -2.319,0 -4.197,1.878 -4.197,4.195 0,2.317 1.878,4.197 4.197,4.197 2.315,0 4.194,-1.88 4.194,-4.197 0,-2.317 -1.879,-4.195 -4.194,-4.195 z m 0,11.839 c -2.319,0 -4.197,1.879 -4.197,4.198 0,2.314 1.878,4.193 4.197,4.193 2.315,0 4.194,-1.879 4.194,-4.193 0,-2.319 -1.879,-4.198 -4.194,-4.198 z m 0,11.838 c -2.319,0 -4.197,1.883 -4.197,4.2 0,2.315 1.878,4.194 4.197,4.194 2.315,0 4.194,-1.879 4.194,-4.194 0,-2.317 -1.879,-4.2 -4.194,-4.2 z m 0,11.844 c -2.319,0 -4.197,1.879 -4.197,4.195 0,2.314 1.878,4.197 4.197,4.197 2.315,0 4.194,-1.883 4.194,-4.197 0,-2.316 -1.879,-4.195 -4.194,-4.195 z m -11.842,-47.362 c -2.317,0 -4.196,1.879 -4.196,4.196 0,2.317 1.879,4.195 4.196,4.195 2.317,0 4.195,-1.877 4.195,-4.195 0,-2.318 -1.878,-4.196 -4.195,-4.196 z m 0,11.841 c -2.317,0 -4.196,1.878 -4.196,4.195 0,2.317 1.879,4.197 4.196,4.197 2.317,0 4.195,-1.88 4.195,-4.197 0,-2.317 -1.878,-4.195 -4.195,-4.195 z m 0,11.839 c -2.317,0 -4.196,1.879 -4.196,4.198 0,2.314 1.879,4.193 4.196,4.193 2.317,0 4.195,-1.879 4.195,-4.193 0,-2.319 -1.878,-4.198 -4.195,-4.198 z m 0,11.838 c -2.317,0 -4.196,1.883 -4.196,4.2 0,2.315 1.879,4.194 4.196,4.194 2.317,0 4.195,-1.879 4.195,-4.194 0,-2.317 -1.878,-4.2 -4.195,-4.2 z m 0,11.844 c -2.317,0 -4.196,1.879 -4.196,4.195 0,2.314 1.879,4.197 4.196,4.197 2.317,0 4.195,-1.883 4.195,-4.197 0,-2.316 -1.878,-4.195 -4.195,-4.195 z M 91.822,416.52 c -2.316,0 -4.195,1.878 -4.195,4.195 0,2.317 1.879,4.197 4.195,4.197 2.318,0 4.194,-1.88 4.194,-4.197 10e-4,-2.317 -1.875,-4.195 -4.194,-4.195 z m 59.202,-23.681 c -2.318,0 -4.194,1.879 -4.194,4.195 0,2.316 1.876,4.195 4.194,4.195 2.317,0 4.193,-1.879 4.193,-4.195 10e-4,-2.315 -1.875,-4.195 -4.193,-4.195 z m 0,11.84 c -2.318,0 -4.194,1.879 -4.194,4.196 0,2.317 1.876,4.195 4.194,4.195 2.317,0 4.193,-1.877 4.193,-4.195 0,-2.318 -1.875,-4.196 -4.193,-4.196 z m 0,11.841 c -2.318,0 -4.194,1.878 -4.194,4.195 0,2.317 1.876,4.197 4.194,4.197 2.317,0 4.193,-1.88 4.193,-4.197 10e-4,-2.317 -1.875,-4.195 -4.193,-4.195 z m 0,11.839 c -2.318,0 -4.194,1.879 -4.194,4.198 0,2.314 1.876,4.193 4.194,4.193 2.317,0 4.193,-1.879 4.193,-4.193 10e-4,-2.319 -1.875,-4.198 -4.193,-4.198 z m 0,11.838 c -2.318,0 -4.194,1.883 -4.194,4.2 0,2.315 1.876,4.194 4.194,4.194 2.317,0 4.193,-1.879 4.193,-4.194 10e-4,-2.317 -1.875,-4.2 -4.193,-4.2 z m 0,11.844 c -2.318,0 -4.194,1.879 -4.194,4.195 0,2.314 1.876,4.197 4.194,4.197 2.317,0 4.193,-1.883 4.193,-4.197 10e-4,-2.316 -1.875,-4.195 -4.193,-4.195 z m 11.84,-47.362 c -2.317,0 -4.193,1.879 -4.193,4.196 0,2.317 1.876,4.195 4.193,4.195 2.317,0 4.196,-1.877 4.196,-4.195 0,-2.318 -1.878,-4.196 -4.196,-4.196 z m 0,11.841 c -2.317,0 -4.193,1.878 -4.193,4.195 0,2.317 1.876,4.197 4.193,4.197 2.317,0 4.196,-1.88 4.196,-4.197 0.001,-2.317 -1.878,-4.195 -4.196,-4.195 z m 0,11.839 c -2.317,0 -4.193,1.879 -4.193,4.198 0,2.314 1.876,4.193 4.193,4.193 2.317,0 4.196,-1.879 4.196,-4.193 0.001,-2.319 -1.878,-4.198 -4.196,-4.198 z m 0,11.838 c -2.317,0 -4.193,1.883 -4.193,4.2 0,2.315 1.876,4.194 4.193,4.194 2.317,0 4.196,-1.879 4.196,-4.194 0.001,-2.317 -1.878,-4.2 -4.196,-4.2 z m 0,11.844 c -2.317,0 -4.193,1.879 -4.193,4.195 0,2.314 1.876,4.197 4.193,4.197 2.317,0 4.196,-1.883 4.196,-4.197 0.001,-2.316 -1.878,-4.195 -4.196,-4.195 z m 11.841,-35.521 c -2.316,0 -4.194,1.878 -4.194,4.195 0,2.317 1.878,4.197 4.194,4.197 2.316,0 4.195,-1.88 4.195,-4.197 0,-2.317 -1.879,-4.195 -4.195,-4.195 z"
   id="path6" />
</g>
</svg>
